<svg width="24" height="24" viewBox="0 0 24 24" fill="none" xmlns="http://www.w3.org/2000/svg">
<g clip-path="url(#clip0_40_5)">
<path d="M11.9824 -0.0146443C12.0301 -0.0145432 12.0778 -0.0144422 12.127 -0.0143381C12.8118 -0.0120098 13.4836 -0.000249043 14.1562 0.140629C14.2019 0.149942 14.2476 0.159255 14.2947 0.16885C16.1251 0.551739 17.8342 1.28387 19.3125 2.4375C19.3545 2.46959 19.3965 2.50168 19.4398 2.53473C19.7568 2.78167 20.053 3.05108 20.3437 3.32813C20.3719 3.35493 20.4 3.38173 20.429 3.40934C20.8198 3.78415 21.1781 4.16912 21.5007 4.60421C21.5644 4.69007 21.6291 4.77513 21.694 4.86017C21.9925 5.2552 22.2565 5.66285 22.5 6.09375C22.517 6.1233 22.534 6.15285 22.5516 6.18329C23.5645 7.95274 24.0224 9.95754 24.0146 11.9824C24.0145 12.0301 24.0144 12.0779 24.0143 12.127C24.012 12.8118 24.0003 13.4836 23.8594 14.1563C23.8454 14.2248 23.8454 14.2248 23.8312 14.2947C23.4483 16.1251 22.7161 17.8342 21.5625 19.3125C21.5304 19.3545 21.4983 19.3965 21.4653 19.4398C21.2183 19.7568 20.9489 20.053 20.6719 20.3438C20.6317 20.386 20.6317 20.386 20.5907 20.429C20.2153 20.8204 19.8298 21.1788 19.3939 21.5017C19.3133 21.5619 19.2339 21.6236 19.1547 21.6857C17.7038 22.8063 15.9513 23.5241 14.1562 23.8594C14.1185 23.867 14.0808 23.8746 14.0419 23.8824C12.6335 24.1578 11.0095 24.1066 9.60937 23.8125C9.53799 23.7978 9.53799 23.7978 9.46516 23.7828C7.71971 23.4119 6.09653 22.654 4.6875 21.5625C4.62433 21.5143 4.62433 21.5143 4.55987 21.4651C4.24306 21.2181 3.9469 20.9488 3.65625 20.6719C3.62811 20.6451 3.59996 20.6183 3.57097 20.5907C3.17962 20.2153 2.82125 19.8298 2.49831 19.3939C2.43807 19.3133 2.37636 19.2339 2.31427 19.1547C1.19369 17.7038 0.475932 15.9513 0.140624 14.1563C0.133018 14.1185 0.125413 14.0808 0.117576 14.0419C-0.138964 12.7298 -0.133403 11.1521 0.140624 9.84375C0.149937 9.79806 0.15925 9.75236 0.168846 9.70528C0.651455 7.39816 1.70316 5.36239 3.32812 3.65625C3.35485 3.62818 3.38159 3.6001 3.40913 3.57118C3.78401 3.18036 4.16904 2.82199 4.60421 2.49935C4.69007 2.4356 4.77513 2.37087 4.86017 2.30603C5.2552 2.00752 5.66285 1.74353 6.09375 1.5C6.1233 1.48299 6.15285 1.46597 6.18329 1.44844C7.95274 0.435471 9.95754 -0.0223547 11.9824 -0.0146443ZM6.04687 3.375C6.00222 3.40697 5.95757 3.43893 5.91156 3.47187C5.10814 4.05894 4.35244 4.73639 3.75 5.53125C3.72711 5.5612 3.70423 5.59115 3.68065 5.62201C3.2947 6.13007 2.96264 6.65101 2.67187 7.21875C2.65376 7.25358 2.63565 7.28841 2.61699 7.32429C1.87822 8.75755 1.52545 10.3343 1.5293 11.9414C1.52934 11.9835 1.52938 12.0256 1.52942 12.069C1.53609 14.151 2.13257 16.2584 3.375 17.9531C3.40696 17.9978 3.43893 18.0424 3.47186 18.0884C4.05894 18.8919 4.73639 19.6476 5.53125 20.25C5.57617 20.2843 5.57617 20.2843 5.622 20.3194C6.13006 20.7053 6.651 21.0374 7.21875 21.3281C7.25358 21.3462 7.2884 21.3644 7.32429 21.383C9.76455 22.6408 12.6379 22.8064 15.24 21.982C16.8091 21.4652 18.1737 20.592 19.3594 19.4531C19.4225 19.3929 19.4225 19.3929 19.4868 19.3315C19.7642 19.061 20.0127 18.775 20.25 18.4688C20.2699 18.4433 20.2897 18.4179 20.3102 18.3917C21.7329 16.5605 22.4763 14.3174 22.4707 12.0059C22.4707 11.9638 22.4706 11.9218 22.4706 11.8784C22.4618 9.13081 21.3449 6.61012 19.4531 4.64063C19.413 4.59857 19.3729 4.55652 19.3315 4.51319C19.061 4.23576 18.775 3.98729 18.4687 3.75C18.4433 3.73013 18.4179 3.71026 18.3917 3.68979C14.8917 0.970601 9.66947 0.719158 6.04687 3.375Z" fill="currentColour"/>
<path d="M6.92596 11.2262C6.99379 11.2257 6.99379 11.2257 7.063 11.2253C7.2141 11.2245 7.36517 11.2251 7.51628 11.2257C7.62478 11.2255 7.73329 11.2251 7.84179 11.2247C8.13621 11.2239 8.43062 11.2242 8.72504 11.2248C9.03318 11.2253 9.34132 11.2248 9.64947 11.2245C10.2001 11.2241 10.7507 11.2248 11.3013 11.2257C11.8002 11.2265 12.2992 11.2264 12.7981 11.2255C13.3779 11.2245 13.9577 11.2242 14.5375 11.2247C14.8443 11.225 15.1511 11.225 15.4578 11.2244C15.7462 11.2239 16.0346 11.2243 16.3231 11.2253C16.4289 11.2256 16.5347 11.2255 16.6406 11.2251C16.7851 11.2246 16.9295 11.2252 17.074 11.2262C17.1159 11.2258 17.1577 11.2253 17.2009 11.2249C17.4745 11.2283 17.634 11.2803 17.8594 11.4375C17.9966 11.6012 18.0576 11.7937 18.0674 12.0058C18.0321 12.3183 17.9062 12.498 17.6719 12.7031C17.5449 12.7454 17.4721 12.7559 17.3418 12.7561C17.3031 12.7563 17.2645 12.7565 17.2246 12.7567C17.1822 12.7566 17.1397 12.7566 17.0959 12.7566C17.0282 12.7568 17.0282 12.7568 16.9592 12.757C16.8073 12.7574 16.6554 12.7575 16.5035 12.7575C16.3949 12.7578 16.2862 12.758 16.1776 12.7582C15.882 12.7589 15.5864 12.7592 15.2908 12.7594C15.1063 12.7595 14.9218 12.7597 14.7373 12.7599C14.2264 12.7605 13.7156 12.761 13.2047 12.7611C13.172 12.7611 13.1393 12.7611 13.1056 12.7612C13.0729 12.7612 13.0401 12.7612 13.0063 12.7612C12.9399 12.7612 12.8735 12.7612 12.8071 12.7612C12.7741 12.7613 12.7412 12.7613 12.7073 12.7613C12.1733 12.7615 11.6394 12.7623 11.1055 12.7634C10.5574 12.7645 10.0093 12.7651 9.46124 12.7651C9.15347 12.7652 8.84571 12.7654 8.53794 12.7663C8.24854 12.7671 7.95914 12.7672 7.66973 12.7667C7.5634 12.7667 7.45707 12.7669 7.35074 12.7674C7.2058 12.768 7.06089 12.7677 6.91594 12.7672C6.85255 12.7678 6.85255 12.7678 6.78787 12.7684C6.52287 12.7663 6.35831 12.7296 6.16185 12.539C5.99473 12.3307 5.93532 12.1852 5.94029 11.9152C5.96282 11.7346 6.02356 11.5771 6.14061 11.4375C6.4077 11.2511 6.60467 11.223 6.92596 11.2262Z" fill="currentColour"/>
</g>
<defs>
<clipPath id="clip0_40_5">
<rect width="24" height="24" fill="white"/>
</clipPath>
</defs>
</svg>
